<svg width="40" height="40" viewBox="0 0 40 40" fill="none" xmlns="http://www.w3.org/2000/svg">
<path d="M11.22 24.832L2.39802 21.95C2.07536 21.8327 1.83336 21.664 1.67202 21.444C1.51069 21.224 1.43002 20.9527 1.43002 20.63C1.43002 20.2927 1.51069 20.0213 1.67202 19.816C1.83336 19.596 2.07536 19.4347 2.39802 19.332L11.22 16.45C11.484 16.362 11.7114 16.362 11.902 16.45C12.0927 16.5233 12.2394 16.648 12.342 16.824C12.4447 16.9853 12.496 17.1687 12.496 17.374C12.496 17.5647 12.43 17.748 12.298 17.924C12.1807 18.1 11.9974 18.2247 11.748 18.298L2.24402 21.29V19.948L11.748 22.962C11.9974 23.0353 12.1807 23.16 12.298 23.336C12.43 23.512 12.496 23.7027 12.496 23.908C12.496 24.1133 12.4447 24.304 12.342 24.48C12.2394 24.6413 12.0927 24.766 11.902 24.854C11.7114 24.9273 11.484 24.92 11.22 24.832ZM2.42002 28C2.09736 28 1.84802 27.9193 1.67202 27.758C1.51069 27.582 1.43002 27.34 1.43002 27.032C1.43002 26.724 1.51069 26.4893 1.67202 26.328C1.84802 26.152 2.09736 26.064 2.42002 26.064H11.528C11.836 26.064 12.078 26.152 12.254 26.328C12.43 26.4893 12.518 26.724 12.518 27.032C12.518 27.34 12.43 27.582 12.254 27.758C12.078 27.9193 11.836 28 11.528 28H2.42002ZM16.9974 28C16.6161 28 16.3154 27.8973 16.0954 27.692C15.8901 27.472 15.7874 27.1787 15.7874 26.812C15.7874 26.4307 15.8901 26.1447 16.0954 25.954C16.3154 25.7633 16.6161 25.668 16.9974 25.668H19.4614V14.866H20.8254L17.5914 16.824C17.3128 16.9853 17.0488 17.0513 16.7994 17.022C16.5648 16.978 16.3594 16.8753 16.1834 16.714C16.0221 16.538 15.9121 16.3327 15.8534 16.098C15.7948 15.8633 15.8094 15.6287 15.8974 15.394C16.0001 15.1447 16.1908 14.9393 16.4694 14.778L19.5054 12.952C19.7988 12.776 20.0921 12.6293 20.3854 12.512C20.6788 12.38 20.9501 12.314 21.1994 12.314C21.5074 12.314 21.7641 12.402 21.9694 12.578C22.1748 12.7393 22.2774 13.0107 22.2774 13.392V25.668H24.5214C24.9028 25.668 25.1961 25.7633 25.4014 25.954C25.6214 26.1447 25.7314 26.4307 25.7314 26.812C25.7314 27.1933 25.6214 27.4867 25.4014 27.692C25.1961 27.8973 24.9028 28 24.5214 28H16.9974ZM29.5508 28.176C29.1108 28.176 28.7735 28.0587 28.5388 27.824C28.3042 27.5747 28.1868 27.2227 28.1868 26.768V13.7C28.1868 13.2453 28.3042 12.9007 28.5388 12.666C28.7735 12.4313 29.1108 12.314 29.5508 12.314C29.9908 12.314 30.3282 12.4313 30.5628 12.666C30.8122 12.9007 30.9368 13.2453 30.9368 13.7V19.398H30.6288C30.9515 18.6207 31.4502 18.034 32.1248 17.638C32.8142 17.2273 33.5915 17.022 34.4568 17.022C35.3222 17.022 36.0335 17.1833 36.5908 17.506C37.1482 17.8287 37.5662 18.32 37.8448 18.98C38.1235 19.6253 38.2628 20.4467 38.2628 21.444V26.768C38.2628 27.2227 38.1455 27.5747 37.9108 27.824C37.6762 28.0587 37.3388 28.176 36.8988 28.176C36.4588 28.176 36.1142 28.0587 35.8648 27.824C35.6302 27.5747 35.5128 27.2227 35.5128 26.768V21.576C35.5128 20.74 35.3515 20.1313 35.0288 19.75C34.7208 19.3687 34.2368 19.178 33.5768 19.178C32.7702 19.178 32.1248 19.4347 31.6408 19.948C31.1715 20.4467 30.9368 21.114 30.9368 21.95V26.768C30.9368 27.7067 30.4748 28.176 29.5508 28.176Z" fill="white"/>
</svg>
