<svg width="29" height="32" viewBox="0 0 29 32" fill="none" xmlns="http://www.w3.org/2000/svg">
<path d="M27.8334 13.3333C27.4258 10.4003 26.0652 7.68272 23.9611 5.59912C21.8571 3.51551 19.1263 2.18149 16.1895 1.80255C13.2527 1.4236 10.2728 2.02076 7.70875 3.50203C5.14472 4.98331 3.13883 7.26652 2.00008 9.99996M1.16675 3.33329V9.99996H7.83341M1.16675 16.6666C1.64455 20.1137 3.436 23.2427 6.16675 25.4M12.8334 20H16.1667C16.6088 20 17.0327 20.1756 17.3453 20.4881C17.6578 20.8007 17.8334 21.2246 17.8334 21.6666V23.3333C17.8334 23.7753 17.6578 24.1992 17.3453 24.5118C17.0327 24.8244 16.6088 25 16.1667 25H14.5001C14.0581 25 13.6341 25.1756 13.3216 25.4881C13.009 25.8007 12.8334 26.2246 12.8334 26.6666V28.3333C12.8334 28.7753 13.009 29.1992 13.3216 29.5118C13.6341 29.8244 14.0581 30 14.5001 30H17.8334M22.8334 20V23.3333C22.8334 23.7753 23.009 24.1992 23.3216 24.5118C23.6341 24.8244 24.0581 25 24.5001 25H26.1667M27.8334 20V30" stroke="white" stroke-width="2.3" stroke-linecap="round" stroke-linejoin="round"/>
</svg>
