<svg width="40" height="24" viewBox="0 0 40 24" fill="none" xmlns="http://www.w3.org/2000/svg">
<path d="M10.0001 19.3333H9.00008H10.0001ZM26.6667 19.3333H27.6667H26.6667ZM16.7501 18.3333C16.1978 18.3333 15.7501 18.781 15.7501 19.3333C15.7501 19.8856 16.1978 20.3333 16.7501 20.3333V18.3333ZM25.0001 2H26.0001H25.0001ZM1.66675 0C1.11446 0 0.666748 0.447715 0.666748 1C0.666748 1.55228 1.11446 2 1.66675 2V0ZM9.41675 20.3333C9.96903 20.3333 10.4167 19.8856 10.4167 19.3333C10.4167 18.781 9.96903 18.3333 9.41675 18.3333V20.3333ZM6.00008 10.1667C6.00008 9.61438 5.55237 9.16667 5.00008 9.16667C4.4478 9.16667 4.00008 9.61438 4.00008 10.1667H6.00008ZM3.33341 5C2.78113 5 2.33341 5.44772 2.33341 6C2.33341 6.55228 2.78113 7 3.33341 7V5ZM10.0001 7C10.5524 7 11.0001 6.55228 11.0001 6C11.0001 5.44772 10.5524 5 10.0001 5V7ZM25.0001 5C24.4478 5 24.0001 5.44772 24.0001 6C24.0001 6.55228 24.4478 7 25.0001 7V5ZM34.3501 6L34.3503 5H34.3501V6ZM35.2634 6.59333L36.1772 6.18724L36.177 6.18667L35.2634 6.59333ZM38.2467 13.3067L37.3329 13.7128L37.3334 13.7139L38.2467 13.3067ZM38.3334 13.7117H39.3334L39.3334 13.7094L38.3334 13.7117ZM38.3334 18.3333H39.3334H38.3334ZM37.3334 19.3333V20.3333V19.3333ZM34.1667 18.3333C33.6145 18.3333 33.1667 18.781 33.1667 19.3333C33.1667 19.8856 33.6145 20.3333 34.1667 20.3333V18.3333ZM13.3334 23.6667C14.4827 23.6667 15.5849 23.2101 16.3975 22.3975L14.9833 20.9832C14.5457 21.4208 13.9523 21.6667 13.3334 21.6667V23.6667ZM16.3975 22.3975C17.2102 21.5848 17.6667 20.4826 17.6667 19.3333H15.6667C15.6667 19.9522 15.4209 20.5457 14.9833 20.9832L16.3975 22.3975ZM17.6667 19.3333C17.6667 18.1841 17.2102 17.0819 16.3975 16.2692L14.9833 17.6834C15.4209 18.121 15.6667 18.7145 15.6667 19.3333H17.6667ZM16.3975 16.2692C15.5849 15.4565 14.4827 15 13.3334 15V17C13.9523 17 14.5457 17.2458 14.9833 17.6834L16.3975 16.2692ZM13.3334 15C12.1841 15 11.0819 15.4565 10.2693 16.2692L11.6835 17.6834C12.1211 17.2458 12.7146 17 13.3334 17V15ZM10.2693 16.2692C9.45663 17.0819 9.00008 18.1841 9.00008 19.3333H11.0001C11.0001 18.7145 11.2459 18.121 11.6835 17.6834L10.2693 16.2692ZM9.00008 19.3333C9.00008 20.4826 9.45663 21.5848 10.2693 22.3975L11.6835 20.9832C11.2459 20.5457 11.0001 19.9522 11.0001 19.3333H9.00008ZM10.2693 22.3975C11.0819 23.2101 12.1841 23.6667 13.3334 23.6667V21.6667C12.7146 21.6667 12.1211 21.4208 11.6835 20.9832L10.2693 22.3975ZM30.0001 23.6667C31.1494 23.6667 32.2516 23.2101 33.0642 22.3975L31.65 20.9832C31.2124 21.4208 30.6189 21.6667 30.0001 21.6667V23.6667ZM33.0642 22.3975C33.8769 21.5848 34.3334 20.4826 34.3334 19.3333H32.3334C32.3334 19.9522 32.0876 20.5457 31.65 20.9832L33.0642 22.3975ZM34.3334 19.3333C34.3334 18.1841 33.8769 17.0819 33.0642 16.2692L31.65 17.6834C32.0876 18.121 32.3334 18.7145 32.3334 19.3333H34.3334ZM33.0642 16.2692C32.2516 15.4565 31.1494 15 30.0001 15V17C30.6189 17 31.2124 17.2458 31.65 17.6834L33.0642 16.2692ZM30.0001 15C28.8508 15 27.7486 15.4565 26.936 16.2692L28.3502 17.6834C28.7878 17.2458 29.3812 17 30.0001 17V15ZM26.936 16.2692C26.1233 17.0819 25.6667 18.1841 25.6667 19.3333H27.6667C27.6667 18.7145 27.9126 18.121 28.3502 17.6834L26.936 16.2692ZM25.6667 19.3333C25.6667 20.4826 26.1233 21.5848 26.936 22.3975L28.3502 20.9832C27.9126 20.5457 27.6667 19.9522 27.6667 19.3333H25.6667ZM26.936 22.3975C27.7486 23.2101 28.8508 23.6667 30.0001 23.6667V21.6667C29.3812 21.6667 28.7878 21.4208 28.3502 20.9832L26.936 22.3975ZM16.7501 20.3333H25.0001V18.3333H16.7501V20.3333ZM26.0001 19.3333V2H24.0001V19.3333H26.0001ZM26.0001 2C26.0001 1.46957 25.7894 0.960861 25.4143 0.585787L24.0001 2V2H26.0001ZM25.4143 0.585787C25.0392 0.210713 24.5305 0 24.0001 0V2L25.4143 0.585787ZM24.0001 0H1.66675V2H24.0001V0ZM9.41675 18.3333H6.00008V20.3333H9.41675V18.3333ZM6.00008 18.3333V18.3333L5.23471 20.1811C5.47737 20.2816 5.73745 20.3333 6.00008 20.3333V18.3333ZM6.00008 18.3333V18.3333L4.58587 19.7475C4.77158 19.9333 4.99206 20.0806 5.23471 20.1811L6.00008 18.3333ZM6.00008 18.3333L4.15232 19.0987C4.25283 19.3413 4.40015 19.5618 4.58587 19.7475L6.00008 18.3333ZM6.00008 18.3333H4.00008C4.00008 18.596 4.05181 18.856 4.15232 19.0987L6.00008 18.3333ZM6.00008 18.3333V10.1667H4.00008V18.3333H6.00008ZM3.33341 7H10.0001V5H3.33341V7ZM25.0001 7H34.3501V5H25.0001V7ZM34.3498 7V7L35.4394 5.32283C35.1152 5.11223 34.7369 5.00009 34.3503 5L34.3498 7ZM34.3498 7V7L36.177 6.18667C36.0198 5.83348 35.7636 5.53344 35.4394 5.32283L34.3498 7ZM34.3496 6.99943L37.3329 13.7128L39.1606 12.9006L36.1772 6.18724L34.3496 6.99943ZM37.3334 13.7139V13.7139L39.3334 13.7094C39.3328 13.4303 39.2738 13.1544 39.1601 12.8994L37.3334 13.7139ZM37.3334 13.7117V18.3333H39.3334V13.7117H37.3334ZM37.3334 18.3333H37.3334L39.1812 19.0987C39.2817 18.856 39.3334 18.596 39.3334 18.3333H37.3334ZM37.3334 18.3333H37.3334L38.7476 19.7475C38.9333 19.5618 39.0807 19.3414 39.1812 19.0987L37.3334 18.3333ZM37.3334 18.3333L37.3334 18.3333L38.0988 20.1811C38.3414 20.0806 38.5619 19.9333 38.7476 19.7475L37.3334 18.3333ZM37.3334 18.3333L37.3334 18.3333V20.3333C37.596 20.3333 37.8561 20.2816 38.0988 20.1811L37.3334 18.3333ZM37.3334 18.3333H34.1667V20.3333H37.3334V18.3333ZM25.0001 20.3333H26.6667V18.3333H25.0001V20.3333Z" fill="white"/>
</svg>
