<svg width="12" height="17" viewBox="0 0 12 17" fill="none" xmlns="http://www.w3.org/2000/svg">
<path d="M0.00260944 10.2318C0.0228281 9.91452 0.159679 9.61544 0.387487 9.39066C0.635606 9.14592 0.97076 9.00844 1.3216 9.00844C1.67244 9.00844 2.00892 9.14592 2.25704 9.39066L4.67833 11.777L4.67833 1.53885L4.68759 1.38611C4.72742 1.05571 4.89361 0.75279 5.15222 0.539234C5.41083 0.325678 5.74232 0.217609 6.07898 0.237109C6.41563 0.256608 6.73203 0.402203 6.96353 0.644146C7.19504 0.88609 7.32417 1.20612 7.32454 1.53885L7.32454 11.7757L9.74318 9.39066L9.86755 9.2823C10.1335 9.07942 10.4677 8.98402 10.8024 9.01547C11.137 9.04693 11.447 9.20288 11.6693 9.45165C11.8916 9.70042 12.0096 10.0234 11.9994 10.3549C11.9891 10.6864 11.8514 11.0016 11.6141 11.2365L6.93687 15.8526L6.8125 15.9609C6.55793 16.1557 6.24005 16.2522 5.9185 16.2323C5.59695 16.2123 5.29383 16.0773 5.066 15.8526L0.387487 11.2365L0.277669 11.1138C0.0801936 10.8627 -0.0176092 10.549 0.00260944 10.2318Z" fill="white"/>
</svg>
