<svg width="40" height="40" viewBox="0 0 40 40" fill="none" xmlns="http://www.w3.org/2000/svg">
<path d="M33.75 12.5L32.7083 30.22C32.6522 31.1751 32.2332 32.0726 31.537 32.7288C30.8408 33.3851 29.9201 33.7504 28.9633 33.75H11.0367C10.0799 33.7504 9.15924 33.3851 8.46304 32.7288C7.76685 32.0726 7.34779 31.1751 7.29167 30.22L6.25 12.5M5.625 12.5H34.375C35.41 12.5 36.25 11.66 36.25 10.625V8.125C36.25 7.09 35.41 6.25 34.375 6.25H5.625C4.59 6.25 3.75 7.09 3.75 8.125V10.625C3.75 11.66 4.59 12.5 5.625 12.5Z" stroke="white" stroke-width="2" stroke-linecap="round" stroke-linejoin="round"/>
<path d="M10.9856 26.0711C10.7337 26.0711 10.5381 26.0018 10.3989 25.8631C10.2663 25.7245 10.2 25.5231 10.2 25.259V19.8022C10.2 19.5447 10.2696 19.3466 10.4088 19.208C10.548 19.0693 10.747 19 11.0055 19H14.4069C14.6058 19 14.755 19.0528 14.8544 19.1585C14.9605 19.2575 15.0135 19.4027 15.0135 19.5942C15.0135 19.7923 14.9605 19.9441 14.8544 20.0498C14.755 20.1488 14.6058 20.1983 14.4069 20.1983H11.7415V21.9017H14.1881C14.387 21.9017 14.5395 21.9545 14.6456 22.0602C14.7517 22.1592 14.8047 22.3045 14.8047 22.4959C14.8047 22.6874 14.7517 22.836 14.6456 22.9416C14.5395 23.0472 14.387 23.1001 14.1881 23.1001H11.7415V25.259C11.7415 25.8004 11.4895 26.0711 10.9856 26.0711Z" fill="white"/>
<path d="M16.4213 26.0711C16.1693 26.0711 15.9771 26.0051 15.8445 25.873C15.7119 25.741 15.6456 25.5528 15.6456 25.3085V21.7928C15.6456 21.5485 15.7085 21.3636 15.8345 21.2382C15.9671 21.1061 16.1495 21.0401 16.3815 21.0401C16.6202 21.0401 16.8025 21.1061 16.9285 21.2382C17.0545 21.3636 17.1175 21.5485 17.1175 21.7928V22.3078H17.018C17.0976 21.9116 17.2733 21.6046 17.5451 21.3867C17.817 21.1689 18.1684 21.0467 18.5994 21.0203C18.7651 21.0071 18.8911 21.05 18.9773 21.1491C19.0701 21.2415 19.1198 21.3966 19.1265 21.6145C19.1397 21.8192 19.0966 21.981 18.9972 22.0998C18.9043 22.2186 18.7452 22.2913 18.5198 22.3177L18.291 22.3375C17.9131 22.3705 17.6313 22.4794 17.4457 22.6643C17.2667 22.8492 17.1772 23.1166 17.1772 23.4665V25.3085C17.1772 25.5528 17.1108 25.741 16.9782 25.873C16.8523 26.0051 16.6666 26.0711 16.4213 26.0711Z" fill="white"/>
<path d="M22.1928 26.0909C21.616 26.0909 21.1187 25.9886 20.701 25.7839C20.2899 25.5726 19.9717 25.2788 19.7463 24.9025C19.5275 24.5196 19.4181 24.0706 19.4181 23.5556C19.4181 23.0538 19.5241 22.6148 19.7363 22.2384C19.9485 21.8555 20.2435 21.5584 20.6215 21.3471C21.006 21.1293 21.4403 21.0203 21.9243 21.0203C22.2757 21.0203 22.594 21.0797 22.8791 21.1986C23.1642 21.3108 23.4095 21.4759 23.615 21.6938C23.8206 21.905 23.9764 22.1658 24.0825 22.4761C24.1886 22.7798 24.2416 23.1199 24.2416 23.4962C24.2416 23.6216 24.2018 23.7174 24.1223 23.7834C24.0427 23.8428 23.9267 23.8725 23.7742 23.8725H20.6513V23.1001H23.1576L22.9984 23.2387C22.9984 22.968 22.9586 22.7435 22.8791 22.5653C22.7995 22.3804 22.6835 22.2417 22.531 22.1493C22.3851 22.0569 22.2028 22.0107 21.984 22.0107C21.7387 22.0107 21.5298 22.0668 21.3574 22.179C21.185 22.2913 21.0524 22.453 20.9596 22.6643C20.8668 22.8756 20.8204 23.1298 20.8204 23.4269V23.5061C20.8204 24.0079 20.9364 24.3776 21.1685 24.6153C21.4072 24.853 21.7586 24.9718 22.2227 24.9718C22.3818 24.9718 22.5641 24.952 22.7697 24.9124C22.9752 24.8728 23.1675 24.8101 23.3465 24.7242C23.499 24.6516 23.6349 24.6285 23.7543 24.6549C23.8736 24.6747 23.9665 24.7275 24.0328 24.8134C24.0991 24.8992 24.1355 24.9982 24.1422 25.1105C24.1554 25.2227 24.1322 25.3349 24.0725 25.4472C24.0129 25.5528 23.9134 25.642 23.7742 25.7146C23.5487 25.84 23.2935 25.9325 23.0084 25.9919C22.7299 26.0579 22.4581 26.0909 22.1928 26.0909Z" fill="white"/>
<path d="M27.6512 26.0909C27.0744 26.0909 26.5771 25.9886 26.1594 25.7839C25.7483 25.5726 25.43 25.2788 25.2046 24.9025C24.9858 24.5196 24.8764 24.0706 24.8764 23.5556C24.8764 23.0538 24.9825 22.6148 25.1947 22.2384C25.4068 21.8555 25.7019 21.5584 26.0798 21.3471C26.4644 21.1293 26.8986 21.0203 27.3827 21.0203C27.7341 21.0203 28.0523 21.0797 28.3374 21.1986C28.6225 21.3108 28.8678 21.4759 29.0734 21.6938C29.2789 21.905 29.4347 22.1658 29.5408 22.4761C29.6469 22.7798 29.7 23.1199 29.7 23.4962C29.7 23.6216 29.6602 23.7174 29.5806 23.7834C29.501 23.8428 29.385 23.8725 29.2325 23.8725H26.1096V23.1001H28.6159L28.4568 23.2387C28.4568 22.968 28.417 22.7435 28.3374 22.5653C28.2579 22.3804 28.1418 22.2417 27.9893 22.1493C27.8435 22.0569 27.6611 22.0107 27.4423 22.0107C27.197 22.0107 26.9882 22.0668 26.8158 22.179C26.6434 22.2913 26.5108 22.453 26.418 22.6643C26.3251 22.8756 26.2787 23.1298 26.2787 23.4269V23.5061C26.2787 24.0079 26.3947 24.3776 26.6268 24.6153C26.8655 24.853 27.2169 24.9718 27.681 24.9718C27.8401 24.9718 28.0225 24.952 28.228 24.9124C28.4336 24.8728 28.6258 24.8101 28.8049 24.7242C28.9574 24.6516 29.0933 24.6285 29.2126 24.6549C29.332 24.6747 29.4248 24.7275 29.4911 24.8134C29.5574 24.8992 29.5939 24.9982 29.6005 25.1105C29.6138 25.2227 29.5905 25.3349 29.5309 25.4472C29.4712 25.5528 29.3718 25.642 29.2325 25.7146C29.0071 25.84 28.7518 25.9325 28.4667 25.9919C28.1882 26.0579 27.9164 26.0909 27.6512 26.0909Z" fill="white"/>
</svg>
