<svg width="30" height="34" viewBox="0 0 30 34" fill="none" xmlns="http://www.w3.org/2000/svg">
<path d="M4.73829 4.61331C7.45985 1.89175 11.1511 0.362793 15 0.362793C18.8488 0.362793 22.5401 1.89175 25.2616 4.61331C27.9832 7.33488 29.5121 11.0261 29.5121 14.875C29.5121 18.7239 27.9832 22.4151 25.2616 25.1367L23.2833 27.0933C21.825 28.5233 19.9333 30.3633 17.6066 32.6133C16.9073 33.2895 15.9727 33.6674 15 33.6674C14.0272 33.6674 13.0926 33.2895 12.3933 32.6133L6.57495 26.9533C5.84329 26.235 5.23162 25.63 4.73829 25.1367C3.39064 23.7891 2.32163 22.1893 1.59228 20.4286C0.862939 18.6679 0.487549 16.7808 0.487549 14.875C0.487549 12.9692 0.862939 11.0821 1.59228 9.32137C2.32163 7.56066 3.39064 5.96086 4.73829 4.61331ZM23.4933 6.37998C21.2403 4.12741 18.1847 2.8621 14.9988 2.86242C11.8128 2.86273 8.75752 4.12863 6.50495 6.38165C4.25238 8.63466 2.98707 11.6902 2.98739 14.8762C2.9877 18.0621 4.25361 21.1174 6.50662 23.37L8.98329 25.8167C10.6941 27.4882 12.4096 29.1549 14.13 30.8167C14.3631 31.0422 14.6747 31.1683 14.9991 31.1683C15.3235 31.1683 15.6352 31.0422 15.8683 30.8167L21.525 25.3166C22.3083 24.5483 22.9633 23.9 23.4916 23.37C25.7441 21.1174 27.0096 18.0622 27.0096 14.8766C27.0096 11.6911 25.7441 8.63592 23.4916 6.38332L23.4933 6.37998ZM15 10.3316C15.657 10.3316 16.3076 10.4611 16.9146 10.7125C17.5217 10.9639 18.0732 11.3325 18.5378 11.7971C19.0024 12.2617 19.371 12.8133 19.6224 13.4203C19.8739 14.0273 20.0033 14.6779 20.0033 15.335C20.0033 15.992 19.8739 16.6426 19.6224 17.2497C19.371 17.8567 19.0024 18.4083 18.5378 18.8729C18.0732 19.3375 17.5217 19.706 16.9146 19.9575C16.3076 20.2089 15.657 20.3383 15 20.3383C13.689 20.3144 12.4399 19.7768 11.5212 18.8413C10.6026 17.9057 10.0879 16.647 10.0879 15.3358C10.0879 14.0247 10.6026 12.7659 11.5212 11.8304C12.4399 10.8948 13.689 10.3572 15 10.3333V10.3316ZM15 12.8316C14.6712 12.8316 14.3457 12.8964 14.042 13.0222C13.7382 13.148 13.4623 13.3324 13.2298 13.5649C12.9974 13.7973 12.813 14.0733 12.6872 14.377C12.5614 14.6807 12.4966 15.0062 12.4966 15.335C12.4966 15.6637 12.5614 15.9892 12.6872 16.293C12.813 16.5967 12.9974 16.8727 13.2298 17.1051C13.4623 17.3376 13.7382 17.522 14.042 17.6478C14.3457 17.7736 14.6712 17.8383 15 17.8383C15.6637 17.8383 16.3002 17.5747 16.7695 17.1054C17.2388 16.636 17.5025 15.9995 17.5025 15.3358C17.5025 14.6721 17.2388 14.0356 16.7695 13.5663C16.3002 13.097 15.6637 12.8333 15 12.8333V12.8316Z" fill="white"/>
</svg>
