<svg width="110" height="41" viewBox="0 0 110 41" fill="none" xmlns="http://www.w3.org/2000/svg">
<path d="M5.25254 4.31608C2.24865 7.09152 0.394899 10.8988 0.0593555 14.9819C-0.314249 19.53 1.08628 24.0461 3.9659 27.5788L13.375 39.1219C13.7777 39.616 14.2847 40.014 14.8595 40.2874C15.4343 40.5607 16.0624 40.7025 16.6985 40.7025C17.3346 40.7025 17.9627 40.5607 18.5375 40.2874C19.1123 40.014 19.6193 39.616 20.022 39.1219L29.4311 27.5788C29.4432 27.564 29.4552 27.5492 29.4672 27.5343L27.1586 25.702C27.1571 25.7039 27.1555 25.7058 27.1539 25.7077L17.7448 37.2529C17.6183 37.4082 17.459 37.5334 17.2784 37.6193C17.0978 37.7052 16.9004 37.7498 16.7005 37.7498C16.5006 37.7498 16.3032 37.7052 16.1225 37.6193C15.9419 37.5334 15.7826 37.4082 15.6561 37.2529L6.24702 25.7077C3.85064 22.7677 2.68518 19.0092 2.99614 15.2242C3.27104 11.8804 4.78904 8.76268 7.24882 6.4897C9.7086 4.21673 12.9303 2.95474 16.2745 2.95423H17.1206C20.4651 2.95425 23.6873 4.21602 26.1475 6.48904C27.0796 7.35028 27.8766 8.33284 28.5219 9.40304C28.5975 9.52848 28.6711 9.65512 28.7425 9.78291L31.3503 8.40508C30.5135 6.89157 29.4351 5.50859 28.1445 4.31608C25.1406 1.54065 21.2062 -1.24777e-05 17.1225 0H16.2745C12.1908 -1.24777e-05 8.25643 1.54065 5.25254 4.31608Z" fill="white"/>
<path d="M71.7241 25.9987V12.4143H74.904V25.9987H71.7241ZM73.3268 10.1756C72.7332 10.1756 72.2414 9.98908 71.8513 9.61597C71.4782 9.24287 71.2916 8.79344 71.2916 8.2677C71.2916 7.725 71.4782 7.27558 71.8513 6.91943C72.2414 6.54632 72.7332 6.35977 73.3268 6.35977C73.9204 6.35977 74.4037 6.53784 74.7768 6.89399C75.1669 7.23318 75.3619 7.66564 75.3619 8.19139C75.3619 8.75104 75.1754 9.22591 74.8022 9.61597C74.4291 9.98908 73.9373 10.1756 73.3268 10.1756Z" fill="white"/>
<path fill-rule="evenodd" clip-rule="evenodd" d="M53.8128 23.7855V25.9987H68.9999V23.2004H58.1915L68.6692 10.4046V8.19139H53.9909V10.9897H64.2906L53.8128 23.7855ZM65.6929 10.9897H64.2906L65.3113 9.74317L65.6929 10.9897Z" fill="white"/>
<path d="M65.6929 10.9897L65.3113 9.74317L64.2906 10.9897H65.6929Z" fill="white"/>
<path fill-rule="evenodd" clip-rule="evenodd" d="M89.6857 12.8976C88.8377 12.4736 87.871 12.2616 86.7856 12.2616C85.5985 12.2616 84.547 12.4991 83.6312 12.9739C83.0265 13.282 82.5177 13.6822 82.1048 14.1745V12.4143H79.0776V25.9987H82.2575V19.1302C82.2575 18.2144 82.4101 17.4597 82.7154 16.8661C83.0376 16.2556 83.487 15.7977 84.0637 15.4924C84.6403 15.1871 85.3017 15.0345 86.0479 15.0345C87.0655 15.0345 87.8541 15.3313 88.4137 15.9249C88.9904 16.5184 89.2787 17.4173 89.2787 18.6214V25.9987H92.4586V18.2144C92.4586 16.8407 92.2126 15.7214 91.7208 14.8564C91.229 13.9745 90.5506 13.3216 89.6857 12.8976ZM82.1048 16.0775V14.1745C82.0958 14.1853 82.0869 14.1961 82.0779 14.2069C81.8881 14.4375 81.719 14.6879 81.5706 14.9582L82.1048 16.0775Z" fill="white"/>
<path d="M81.5706 14.9582L82.1048 16.0775V14.1745L82.0779 14.2069C81.8881 14.4375 81.719 14.6879 81.5706 14.9582Z" fill="white"/>
<path fill-rule="evenodd" clip-rule="evenodd" d="M98.9849 30.6032C100.189 30.9424 101.419 31.112 102.674 31.112C105.048 31.112 106.863 30.5269 108.118 29.3567C109.372 28.2035 110 26.3973 110 23.9382V12.4143H106.973V14.2273C106.524 13.6846 105.99 13.2583 105.37 12.9485C104.454 12.4906 103.42 12.2616 102.267 12.2616C100.978 12.2616 99.8074 12.533 98.7559 13.0757C97.7214 13.6184 96.8989 14.3816 96.2883 15.3652C95.6947 16.3489 95.398 17.4936 95.398 18.7995C95.398 20.1223 95.6947 21.2756 96.2883 22.2592C96.8989 23.2428 97.7214 24.0145 98.7559 24.5742C99.8074 25.1169 100.978 25.3882 102.267 25.3882C103.42 25.3882 104.454 25.1593 105.37 24.7014C105.921 24.4157 106.404 24.0412 106.82 23.5776V24.2943C106.82 25.668 106.472 26.6941 105.777 27.3725C105.082 28.0678 103.988 28.4155 102.495 28.4155C101.563 28.4155 100.638 28.2628 99.7226 27.9576C98.8238 27.6692 98.0775 27.2792 97.484 26.7874L96.0594 29.1786C96.8225 29.8061 97.7977 30.281 98.9849 30.6032ZM106.82 21.8776V23.5776C106.836 23.5595 106.853 23.5412 106.869 23.5228C107.125 23.2295 107.354 22.9015 107.558 22.539C108.118 21.5554 108.397 20.3089 108.397 18.7995C108.397 17.2901 108.118 16.0521 107.558 15.0854C107.382 14.7728 107.187 14.4867 106.973 14.2273V15.7214L107.075 18.7995L106.82 21.8776ZM104.887 22.2083C104.259 22.5306 103.547 22.6917 102.75 22.6917C101.953 22.6917 101.232 22.5306 100.588 22.2083C99.96 21.8691 99.4682 21.4112 99.1121 20.8346C98.7729 20.241 98.6033 19.5627 98.6033 18.7995C98.6033 18.0363 98.7729 17.3664 99.1121 16.7898C99.4682 16.1962 99.96 15.7468 100.588 15.4415C101.232 15.1193 101.953 14.9582 102.75 14.9582C103.547 14.9582 104.259 15.1193 104.887 15.4415C105.514 15.7468 105.998 16.1962 106.337 16.7898C106.693 17.3664 106.871 18.0363 106.871 18.7995C106.871 19.5627 106.693 20.241 106.337 20.8346C105.998 21.4112 105.514 21.8691 104.887 22.2083Z" fill="white"/>
<path d="M107.075 18.7995L106.82 21.8776V23.5776C106.836 23.5595 106.853 23.5412 106.869 23.5228C107.125 23.2295 107.354 22.9015 107.558 22.539C108.118 21.5554 108.397 20.3089 108.397 18.7995C108.397 17.2901 108.118 16.0521 107.558 15.0854C107.382 14.7728 107.187 14.4867 106.973 14.2273V15.7214L107.075 18.7995Z" fill="white"/>
<path fill-rule="evenodd" clip-rule="evenodd" d="M13.381 25.5917C14.5512 26.0327 15.8316 26.2531 17.2223 26.2531C18.4773 26.2531 19.7153 26.0666 20.9364 25.6935C22.1744 25.3034 23.2598 24.7353 24.1926 23.9891V16.8916H21.0636V22.4301C20.6994 22.6415 20.3263 22.8135 19.9442 22.9461C19.1302 23.2174 18.2822 23.3531 17.4003 23.3531C16.4506 23.3531 15.5857 23.2004 14.8055 22.8952C14.0254 22.5899 13.347 22.1574 12.7704 21.5978C12.1938 21.0212 11.7444 20.3513 11.4221 19.5881C11.1169 18.8249 10.9642 17.9939 10.9642 17.0951C10.9642 16.1793 11.1169 15.3398 11.4221 14.5766C11.7444 13.8134 12.1938 13.152 12.7704 12.5923C13.347 12.0327 14.0339 11.6002 14.831 11.295C15.6281 10.9897 16.493 10.8371 17.4258 10.8371C18.3925 10.8371 19.2743 11.0066 20.0714 11.3458C20.8855 11.6681 21.6402 12.1768 22.3355 12.8722L24.4215 10.8371C23.5905 9.88733 22.5645 9.16655 21.3434 8.67473C20.1393 8.18291 18.7825 7.93699 17.2731 7.93699C15.8825 7.93699 14.602 8.16595 13.4318 8.62385C12.2616 9.06479 11.2356 9.70077 10.3537 10.5318C9.48878 11.3458 8.81888 12.3125 8.34402 13.4318C7.86916 14.5512 7.63173 15.7722 7.63173 17.0951C7.63173 18.4179 7.86916 19.639 8.34402 20.7583C8.81888 21.8776 9.48878 22.8528 10.3537 23.6838C11.2186 24.4978 12.2277 25.1338 13.381 25.5917ZM21.0636 23.5566V22.4301C21.4914 22.1817 21.9069 21.8788 22.3101 21.5215L24.1926 23.9891L21.0636 23.5566Z" fill="white"/>
<path d="M24.1926 23.9891L22.3101 21.5215C21.9069 21.8788 21.4914 22.1817 21.0636 22.4301V23.5566L24.1926 23.9891Z" fill="white"/>
<path fill-rule="evenodd" clip-rule="evenodd" d="M30.6658 25.2865C31.8021 25.88 33.1249 26.1768 34.6343 26.1768C35.8215 26.1768 36.873 25.9903 37.7888 25.6172C38.7215 25.2271 39.4932 24.6759 40.1037 23.9636L38.3993 22.0048C37.9244 22.5136 37.3817 22.8867 36.7712 23.1241C36.1607 23.3616 35.4738 23.4803 34.7106 23.4803C33.8288 23.4803 33.0486 23.3107 32.3702 22.9715C31.6919 22.6323 31.1661 22.149 30.793 21.5215C30.5579 21.126 30.3969 20.6936 30.3099 20.2241H40.9687C40.9856 20.0714 40.9941 19.9103 40.9941 19.7407C41.0111 19.5711 41.0195 19.4185 41.0195 19.2828C41.0195 17.8582 40.7227 16.6202 40.1292 15.5687C39.5356 14.5172 38.7215 13.7032 37.687 13.1266C36.6525 12.5499 35.4738 12.2616 34.151 12.2616C32.7942 12.2616 31.5816 12.5584 30.5132 13.152C29.4617 13.7456 28.6307 14.5681 28.0202 15.6196C27.4266 16.6541 27.1298 17.8498 27.1298 19.2065C27.1298 20.5463 27.4351 21.7419 28.0456 22.7934C28.6731 23.8449 29.5465 24.6759 30.6658 25.2865ZM30.2815 18.1126H38.0122C37.9505 17.5996 37.7997 17.1332 37.5598 16.7135C37.2206 16.1199 36.7542 15.6535 36.1607 15.3143C35.584 14.9751 34.9142 14.8055 34.151 14.8055C33.3708 14.8055 32.684 14.9751 32.0904 15.3143C31.5138 15.6535 31.0559 16.1284 30.7167 16.7389C30.4962 17.1452 30.3511 17.6031 30.2815 18.1126ZM30.2334 18.8504V19.3591C30.2334 19.639 30.2554 19.9078 30.2995 20.1656C30.3028 20.1851 30.3063 20.2046 30.3099 20.2241H29.6483V18.1126H30.2815C30.2494 18.3476 30.2334 18.5935 30.2334 18.8504Z" fill="white"/>
<path d="M29.6483 18.1126V20.2241H30.3099C30.3063 20.2046 30.3028 20.1851 30.2995 20.1656C30.2554 19.9078 30.2334 19.639 30.2334 19.3591V18.8504C30.2334 18.5935 30.2494 18.3476 30.2815 18.1126H29.6483Z" fill="white"/>
<path fill-rule="evenodd" clip-rule="evenodd" d="M45.7276 25.0321C46.5416 25.7952 47.6948 26.1768 49.1873 26.1768C49.7639 26.1768 50.3235 26.1005 50.8662 25.9479C51.409 25.7952 51.8669 25.5663 52.24 25.261L51.3496 22.9969C50.8747 23.37 50.2812 23.5566 49.5689 23.5566C48.9753 23.5566 48.5089 23.3785 48.1697 23.0224C47.8475 22.6662 47.6864 22.1659 47.6864 21.5215V15.0599H51.3242V12.516H47.6864V9.41246H44.5065V12.516H42.2678V15.0599H44.5065V21.5978C44.5065 23.1072 44.9135 24.2519 45.7276 25.0321ZM44.5065 15.0599H47.6864V12.516H44.5065V15.0599Z" fill="white"/>
<path d="M44.5065 15.0599H47.6864V12.516H44.5065V15.0599Z" fill="white"/>
</svg>
