<svg width="21" height="20" viewBox="0 0 21 20" fill="none" xmlns="http://www.w3.org/2000/svg">
<path d="M11.6948 0.000986255C12.4246 -0.00181397 13.1543 0.00552015 13.8838 0.0229863L14.0778 0.0299863C14.3018 0.0379863 14.5228 0.0479863 14.7898 0.0599863C15.8538 0.109986 16.5798 0.277986 17.2168 0.524986C17.8768 0.778986 18.4328 1.12299 18.9888 1.67899C19.4972 2.17859 19.8907 2.78293 20.1418 3.44999C20.3888 4.08699 20.5568 4.81399 20.6068 5.87799C20.6188 6.14399 20.6288 6.36599 20.6368 6.58999L20.6428 6.78399C20.6606 7.51318 20.6683 8.24258 20.6658 8.97199L20.6668 9.71799V11.028C20.6693 11.7577 20.6616 12.4875 20.6438 13.217L20.6378 13.411C20.6298 13.635 20.6198 13.856 20.6078 14.123C20.5578 15.187 20.3878 15.913 20.1418 16.55C19.8915 17.2177 19.4979 17.8226 18.9888 18.322C18.4888 18.8303 17.8841 19.2237 17.2168 19.475C16.5798 19.722 15.8538 19.89 14.7898 19.94C14.5228 19.952 14.3018 19.962 14.0778 19.97L13.8838 19.976C13.1543 19.9938 12.4246 20.0014 11.6948 19.999L10.9488 20H9.63984C8.9101 20.0025 8.18036 19.9948 7.45084 19.977L7.25684 19.971C7.01945 19.9624 6.78211 19.9524 6.54484 19.941C5.48084 19.891 4.75484 19.721 4.11684 19.475C3.44952 19.2243 2.84507 18.8308 2.34584 18.322C1.83688 17.8223 1.44306 17.2175 1.19184 16.55C0.944837 15.913 0.776837 15.187 0.726837 14.123C0.7157 13.8857 0.7057 13.6484 0.696837 13.411L0.691837 13.217C0.6734 12.4875 0.665066 11.7577 0.666837 11.028V8.97199C0.664046 8.24259 0.67138 7.51318 0.688837 6.78399L0.695837 6.58999C0.703837 6.36599 0.713837 6.14399 0.725837 5.87799C0.775837 4.81299 0.943837 4.08799 1.19084 3.44999C1.44221 2.78261 1.8368 2.17843 2.34684 1.67999C2.84573 1.17074 3.4498 0.776559 4.11684 0.524986C4.75484 0.277986 5.47984 0.109986 6.54484 0.0599863L7.25684 0.0299863L7.45084 0.0249864C8.18002 0.00655924 8.90942 -0.00177499 9.63884 -1.36727e-05L11.6948 0.000986255ZM10.6668 5.00099C10.0043 4.99162 9.34659 5.11401 8.73181 5.36105C8.11703 5.6081 7.55748 5.97486 7.08568 6.44004C6.61388 6.90522 6.23924 7.45952 5.98352 8.07075C5.72781 8.68197 5.59613 9.33793 5.59613 10.0005C5.59613 10.663 5.72781 11.319 5.98352 11.9302C6.23924 12.5414 6.61388 13.0958 7.08568 13.5609C7.55748 14.0261 8.11703 14.3929 8.73181 14.6399C9.34659 14.887 10.0043 15.0094 10.6668 15C11.9929 15 13.2647 14.4732 14.2024 13.5355C15.1401 12.5978 15.6668 11.3261 15.6668 9.99999C15.6668 8.6739 15.1401 7.40213 14.2024 6.46445C13.2647 5.52677 11.9929 5.00099 10.6668 5.00099ZM10.6668 7.00099C11.0653 6.99364 11.4613 7.06578 11.8316 7.21319C12.2019 7.3606 12.5392 7.58033 12.8236 7.85953C13.1081 8.13873 13.334 8.47182 13.4883 8.83933C13.6425 9.20684 13.722 9.6014 13.7221 9.99998C13.7222 10.3986 13.6428 10.7931 13.4887 11.1607C13.3345 11.5283 13.1087 11.8614 12.8243 12.1407C12.54 12.42 12.2028 12.6399 11.8326 12.7874C11.4623 12.9349 11.0663 13.0072 10.6678 13C9.87219 13 9.10913 12.6839 8.54652 12.1213C7.98391 11.5587 7.66784 10.7956 7.66784 9.99999C7.66784 9.20434 7.98391 8.44127 8.54652 7.87867C9.10913 7.31606 9.87219 6.99999 10.6678 6.99999L10.6668 7.00099ZM15.9168 3.50099C15.5942 3.5139 15.2891 3.65114 15.0654 3.88396C14.8418 4.11678 14.7168 4.42712 14.7168 4.74999C14.7168 5.07285 14.8418 5.38319 15.0654 5.61601C15.2891 5.84884 15.5942 5.98607 15.9168 5.99899C16.2484 5.99899 16.5663 5.86729 16.8007 5.63287C17.0351 5.39845 17.1668 5.08051 17.1668 4.74899C17.1668 4.41747 17.0351 4.09952 16.8007 3.8651C16.5663 3.63068 16.2484 3.49899 15.9168 3.49899V3.50099Z" fill="white"/>
</svg>
