<svg width="40" height="40" viewBox="0 0 40 40" fill="none" xmlns="http://www.w3.org/2000/svg">
<g clip-path="url(#clip0_120_845)">
<path d="M6.55695 36.5786C6.34482 36.7908 6.09026 36.9011 5.79328 36.9095C5.50478 36.9095 5.25446 36.8035 5.04233 36.5913C4.82171 36.3707 4.7114 36.1162 4.7114 35.8277C4.71989 35.5307 4.8302 35.2761 5.04233 35.064L7.66428 32.442C7.87641 32.2299 8.12673 32.1238 8.41523 32.1238C8.71221 32.1154 8.97102 32.2214 9.19163 32.442C9.40376 32.6542 9.50559 32.9087 9.4971 33.2057C9.4971 33.4942 9.39104 33.7445 9.17891 33.9567L6.55695 36.5786ZM16.5538 32.182C16.189 32.5469 15.769 32.8651 15.2938 33.1366C14.8186 33.4081 14.318 33.6033 13.7919 33.7221C13.5373 33.8069 13.2997 33.8069 13.0791 33.7221C12.8585 33.6203 12.6803 33.476 12.5445 33.2893C12.4088 33.1027 12.3324 32.899 12.3154 32.6784C12.29 32.4493 12.3367 32.2414 12.4554 32.0547C12.5742 31.8511 12.7821 31.6941 13.0791 31.5838C13.4864 31.465 13.8386 31.3165 14.1355 31.1383C14.441 30.9517 14.7083 30.7438 14.9374 30.5147C15.3871 30.0649 15.6671 29.5813 15.7774 29.0637C15.8877 28.5461 15.8156 28.0073 15.5611 27.4472C15.3065 26.8702 14.8822 26.2847 14.2883 25.6908L13.461 24.8635L13.6391 24.6853C13.9701 25.152 14.1737 25.6356 14.2501 26.1363C14.3265 26.6369 14.2798 27.1248 14.1101 27.6C13.9404 28.0751 13.6604 28.5079 13.27 28.8982C12.7694 29.3988 12.1966 29.7255 11.5518 29.8783C10.8984 30.0225 10.2365 29.9886 9.56621 29.7764C8.89587 29.5643 8.28493 29.1825 7.73339 28.6309C7.13942 28.037 6.74061 27.3836 6.53697 26.6708C6.32483 25.9496 6.31635 25.2283 6.51151 24.5071C6.70667 23.7858 7.10124 23.1282 7.69521 22.5343C8.46737 21.7621 9.29468 21.2912 10.1772 21.1215C11.0596 20.9348 11.9803 21.0408 12.9391 21.4397C13.8895 21.83 14.8398 22.5003 15.7902 23.4507C16.5454 24.2059 17.1224 24.9695 17.5212 25.7417C17.9285 26.5054 18.166 27.2606 18.2339 28.0073C18.3018 28.754 18.1915 29.4837 17.903 30.1965C17.623 30.9007 17.1733 31.5626 16.5538 32.182ZM12.2391 26.849C12.5021 26.586 12.6718 26.2975 12.7482 25.9835C12.8246 25.6526 12.8076 25.3217 12.6973 24.9907C12.587 24.6598 12.3918 24.3543 12.1118 24.0743C11.8233 23.7858 11.5136 23.5864 11.1827 23.4761C10.8517 23.3658 10.525 23.3531 10.2026 23.4379C9.88865 23.5143 9.60015 23.684 9.33711 23.9471C9.07407 24.2101 8.90436 24.4986 8.82799 24.8126C8.75162 25.1265 8.76435 25.4532 8.86618 25.7926C8.97648 26.1235 9.17589 26.4332 9.46439 26.7217C9.7444 27.0018 10.0499 27.1969 10.3808 27.3072C10.7202 27.409 11.0511 27.426 11.3736 27.3581C11.6875 27.2818 11.976 27.1121 12.2391 26.849ZM24.9238 23.812C23.8377 24.8981 22.6031 25.3266 21.22 25.0975C19.8369 24.8515 18.4029 23.986 16.918 22.501C15.9252 21.5083 15.2167 20.5452 14.7924 19.6118C14.3682 18.6615 14.2281 17.7663 14.3724 16.9262C14.5166 16.0692 14.9494 15.2801 15.6706 14.5588C16.7652 13.4642 17.9914 13.0272 19.349 13.2478C20.6982 13.46 22.1195 14.3127 23.6129 15.8062C24.6056 16.7989 25.3184 17.7747 25.7512 18.7336C26.1839 19.6754 26.3366 20.5749 26.2094 21.4319C26.0821 22.2889 25.6536 23.0823 24.9238 23.812ZM23.3201 22.2083C23.8123 21.7162 23.9353 21.1095 23.6892 20.3882C23.4347 19.6585 22.7771 18.7633 21.7164 17.7026C20.6557 16.642 19.7733 15.9971 19.069 15.768C18.3647 15.5389 17.7665 15.6704 17.2744 16.1625C16.7822 16.6547 16.6507 17.2529 16.8798 17.9572C17.1089 18.6615 17.7538 19.5439 18.8144 20.6046C19.8751 21.6652 20.7703 22.3228 21.5 22.5774C22.2213 22.8235 22.828 22.7004 23.3201 22.2083ZM32.8356 15.2893C32.9035 15.5608 32.8908 15.7942 32.7975 15.9893C32.7126 16.193 32.5811 16.3499 32.4029 16.4602C32.2247 16.5706 32.0338 16.6257 31.8301 16.6257C31.6265 16.6087 31.4356 16.5366 31.2574 16.4093C31.0792 16.2821 30.9561 16.0827 30.8883 15.8111L27.5408 3.32503C27.4645 3.04502 27.4687 2.80319 27.5535 2.59954C27.6384 2.3959 27.7699 2.2474 27.9481 2.15406C28.1263 2.04376 28.3215 1.99284 28.5336 2.00133C28.7372 2.00133 28.9282 2.06497 29.1064 2.19225C29.2845 2.31953 29.4076 2.51893 29.4755 2.79046L32.8356 15.2893ZM27.7699 13.431C27.0317 14.1692 26.2129 14.4959 25.3134 14.4111C24.4055 14.3177 23.5315 13.851 22.6915 13.011C22.123 12.4425 21.7242 11.8655 21.4951 11.28C21.2744 10.686 21.2278 10.1048 21.3551 9.53626C21.4908 8.95926 21.8005 8.42893 22.2842 7.94527C23.0139 7.21554 23.8328 6.89734 24.7407 6.99068C25.6486 7.06704 26.5183 7.521 27.3499 8.35256C27.9099 8.91259 28.3045 9.49383 28.5336 10.0963C28.7627 10.6818 28.8179 11.263 28.6991 11.84C28.5718 12.4085 28.2621 12.9389 27.7699 13.431ZM26.548 12.2091C26.7177 12.0394 26.8068 11.8485 26.8153 11.6364C26.8238 11.4073 26.7474 11.1527 26.5862 10.8727C26.425 10.5757 26.1662 10.249 25.8098 9.89264C25.2753 9.35807 24.8213 9.04836 24.4479 8.9635C24.0746 8.86168 23.7649 8.9338 23.5188 9.17988C23.3491 9.34958 23.2558 9.54474 23.2388 9.76536C23.2218 9.98598 23.2939 10.2363 23.4552 10.5163C23.6079 10.7878 23.8667 11.106 24.2316 11.4709C24.7746 12.014 25.2328 12.3364 25.6062 12.4382C25.9795 12.54 26.2935 12.4637 26.548 12.2091ZM38.0923 10.6436C37.354 11.3818 36.531 11.7042 35.6231 11.6109C34.7151 11.5176 33.8411 11.0509 33.0011 10.2108C32.4411 9.65081 32.0507 9.07381 31.8301 8.47984C31.6095 7.88587 31.5628 7.30463 31.6901 6.73612C31.8174 6.1676 32.1229 5.64152 32.6065 5.15785C33.3363 4.42812 34.1509 4.10568 35.0503 4.19053C35.9582 4.2669 36.828 4.72086 37.6595 5.55242C38.2195 6.11245 38.6141 6.69369 38.8432 7.29615C39.0808 7.89011 39.1402 8.4756 39.0214 9.0526C38.8941 9.62111 38.5844 10.1514 38.0923 10.6436ZM36.8577 9.40898C37.0274 9.23927 37.1165 9.04836 37.1249 8.83622C37.1419 8.61561 37.0656 8.36105 36.8958 8.07255C36.7346 7.77556 36.4758 7.44888 36.1194 7.0925C35.5849 6.55793 35.1309 6.24821 34.7576 6.16336C34.3842 6.06154 34.0745 6.13366 33.8284 6.37974C33.6587 6.54944 33.5654 6.7446 33.5484 6.96522C33.5399 7.17735 33.612 7.42767 33.7648 7.71617C33.926 7.99618 34.1848 8.31438 34.5412 8.67076C35.0927 9.2223 35.5552 9.54899 35.9285 9.65081C36.2934 9.74415 36.6031 9.66354 36.8577 9.40898Z" fill="white"/>
</g>
<defs>
<clipPath id="clip0_120_845">
<rect width="40" height="40" fill="white"/>
</clipPath>
</defs>
</svg>
