<svg width="23" height="16" viewBox="0 0 23 16" fill="none" xmlns="http://www.w3.org/2000/svg">
<path d="M11.7376 0.199951H11.8599C12.9903 0.204076 18.7175 0.245329 20.2617 0.660605C20.7286 0.787345 21.1539 1.03438 21.4954 1.37704C21.8368 1.71969 22.0824 2.14595 22.2075 2.61323C22.3464 3.13576 22.444 3.82743 22.51 4.5411L22.5237 4.68411L22.554 5.04163L22.565 5.18464C22.6544 6.44147 22.6654 7.61854 22.6667 7.87568V7.97881C22.6654 8.24558 22.653 9.50241 22.554 10.8115L22.543 10.9559L22.5306 11.0989C22.4619 11.8854 22.3601 12.6665 22.2075 13.2413C22.0828 13.7087 21.8373 14.1352 21.4958 14.4779C21.1543 14.8206 20.7287 15.0675 20.2617 15.1939C18.6666 15.6229 12.6039 15.6532 11.7637 15.6545H11.5684C11.1435 15.6545 9.38617 15.6463 7.54355 15.583L7.30979 15.5748L7.19016 15.5693L6.95502 15.5597L6.71988 15.55C5.19353 15.4827 3.74007 15.374 3.0704 15.1925C2.60354 15.0663 2.17806 14.8196 1.83657 14.4771C1.49508 14.1347 1.24957 13.7085 1.12465 13.2413C0.972017 12.6679 0.870261 11.8854 0.801506 11.0989L0.790506 10.9545L0.779505 10.8115C0.711641 9.87973 0.674036 8.94601 0.666748 8.01182L0.666748 7.84268C0.669498 7.54704 0.680499 6.52535 0.754754 5.39778L0.764379 5.25614L0.768504 5.18464L0.779505 5.04163L0.809757 4.68411L0.823508 4.5411C0.889512 3.82743 0.987143 3.13439 1.12603 2.61323C1.25074 2.14576 1.49615 1.7193 1.83765 1.37659C2.17916 1.03388 2.60475 0.786965 3.07177 0.660605C3.74144 0.481844 5.19491 0.371837 6.72125 0.303083L6.95502 0.293457L7.19153 0.285207L7.30979 0.281081L7.54493 0.271456C8.85361 0.229343 10.1628 0.205964 11.4722 0.201326H11.7376V0.199951ZM9.4673 4.61398V11.2391L15.1835 7.92794L9.4673 4.61398Z" fill="white"/>
</svg>
